<svg width="105" height="35" viewBox="0 0 105 35" fill="none" xmlns="http://www.w3.org/2000/svg">
<path d="M2.808 11.816C2.808 11.432 2.664 11.096 2.376 10.808C2.088 10.52 1.752 10.376 1.368 10.376H0.936L0.648 10.088V8.504L0.936 8.216H2.808V6.524C2.808 5.372 2.988 4.4 3.348 3.608C3.708 2.816 4.164 2.18 4.716 1.7C5.268 1.196 5.88 0.835999 6.552 0.619998C7.224 0.403998 7.872 0.295998 8.496 0.295998C9.408 0.295998 10.176 0.559999 10.8 1.088C11.424 1.592 11.736 2.264 11.736 3.104C11.736 3.872 11.484 4.52 10.98 5.048C10.5 5.576 9.84 5.84 9 5.84C8.184 5.84 7.536 5.564 7.056 5.012C6.576 4.436 6.336 3.74 6.336 2.924C5.808 3.212 5.436 3.632 5.22 4.184C5.028 4.736 4.932 5.348 4.932 6.02L5.22 6.416L7.272 7.244L7.56 7.568V8.216H10.152L10.44 8.504V10.088L10.152 10.376H7.56V22.4C7.56 22.76 7.704 23.096 7.992 23.408C8.304 23.696 8.64 23.84 9 23.84H9.432L9.72 24.128V25.712L9.432 26H0.936L0.648 25.712V24.128L0.936 23.84H1.368C1.728 23.84 2.052 23.696 2.34 23.408C2.652 23.096 2.808 22.76 2.808 22.4V11.816ZM18.5906 11.24C19.0706 10.232 19.7306 9.392 20.5706 8.72C21.4106 8.048 22.4306 7.712 23.6306 7.712C24.5426 7.712 25.2866 7.988 25.8626 8.54C26.4386 9.068 26.7266 9.728 26.7266 10.52C26.7266 11.288 26.4626 11.936 25.9346 12.464C25.4306 12.992 24.7706 13.256 23.9546 13.256C23.1626 13.256 22.5026 12.992 21.9746 12.464C21.4466 11.912 21.1826 11.252 21.1826 10.484C20.6066 10.844 20.0906 11.492 19.6346 12.428C19.1786 13.364 18.9506 14.468 18.9506 15.74V22.4C18.9506 22.76 19.0946 23.096 19.3826 23.408C19.6946 23.696 20.0306 23.84 20.3906 23.84H20.8226L21.1106 24.128V25.712L20.8226 26H12.3266L12.0386 25.712V24.128L12.3266 23.84H12.7586C13.1186 23.84 13.4426 23.696 13.7306 23.408C14.0426 23.096 14.1986 22.76 14.1986 22.4V13.328C14.1986 12.968 14.0426 12.644 13.7306 12.356C13.4426 12.044 13.1186 11.888 12.7586 11.888H12.3986L12.0386 11.528V10.7L12.3266 10.34L17.5106 8.216H18.5906L18.9506 8.576L18.5906 11.24ZM31.5253 18.368C31.7173 19.808 32.3413 20.96 33.3973 21.824C34.4773 22.688 35.8453 23.12 37.5013 23.12C39.0133 23.12 40.3333 22.82 41.4613 22.22C42.5893 21.596 43.5373 20.696 44.3053 19.52L44.6653 19.376L45.0613 19.52L45.2413 19.88C44.6413 21.992 43.5613 23.624 42.0013 24.776C40.4653 25.928 38.6173 26.504 36.4573 26.504C35.0413 26.504 33.7453 26.264 32.5693 25.784C31.4173 25.28 30.4213 24.608 29.5813 23.768C28.7653 22.904 28.1173 21.896 27.6373 20.744C27.1813 19.568 26.9533 18.308 26.9533 16.964C26.9533 15.668 27.1933 14.456 27.6733 13.328C28.1773 12.2 28.8493 11.228 29.6893 10.412C30.5533 9.572 31.5493 8.912 32.6773 8.432C33.8053 7.952 35.0173 7.712 36.3133 7.712C37.8253 7.712 39.1333 7.976 40.2373 8.504C41.3413 9.008 42.2533 9.692 42.9733 10.556C43.7173 11.396 44.2573 12.38 44.5933 13.508C44.9533 14.612 45.1333 15.764 45.1333 16.964L44.8453 17.252L31.5253 18.368ZM38.9773 15.704C39.5293 15.656 39.9013 15.476 40.0933 15.164C40.3093 14.852 40.4173 14.516 40.4173 14.156C40.4173 12.836 40.0453 11.792 39.3013 11.024C38.5813 10.256 37.6333 9.872 36.4573 9.872C34.9453 9.872 33.7573 10.448 32.8933 11.6C32.0293 12.728 31.5493 14.204 31.4533 16.028L31.7053 16.28L38.9773 15.704ZM51.8456 18.368C52.0376 19.808 52.6616 20.96 53.7176 21.824C54.7976 22.688 56.1656 23.12 57.8216 23.12C59.3336 23.12 60.6536 22.82 61.7816 22.22C62.9096 21.596 63.8576 20.696 64.6256 19.52L64.9856 19.376L65.3816 19.52L65.5616 19.88C64.9616 21.992 63.8816 23.624 62.3216 24.776C60.7856 25.928 58.9376 26.504 56.7776 26.504C55.3616 26.504 54.0656 26.264 52.8896 25.784C51.7376 25.28 50.7416 24.608 49.9016 23.768C49.0856 22.904 48.4376 21.896 47.9576 20.744C47.5016 19.568 47.2736 18.308 47.2736 16.964C47.2736 15.668 47.5136 14.456 47.9936 13.328C48.4976 12.2 49.1696 11.228 50.0096 10.412C50.8736 9.572 51.8696 8.912 52.9976 8.432C54.1256 7.952 55.3376 7.712 56.6336 7.712C58.1456 7.712 59.4536 7.976 60.5576 8.504C61.6616 9.008 62.5736 9.692 63.2936 10.556C64.0376 11.396 64.5776 12.38 64.9136 13.508C65.2736 14.612 65.4536 15.764 65.4536 16.964L65.1656 17.252L51.8456 18.368ZM59.2976 15.704C59.8496 15.656 60.2216 15.476 60.4136 15.164C60.6296 14.852 60.7376 14.516 60.7376 14.156C60.7376 12.836 60.3656 11.792 59.6216 11.024C58.9016 10.256 57.9536 9.872 56.7776 9.872C55.2656 9.872 54.0776 10.448 53.2136 11.6C52.3496 12.728 51.8696 14.204 51.7736 16.028L52.0256 16.28L59.2976 15.704ZM69.3939 5.192C69.3939 4.832 69.2379 4.508 68.9259 4.22C68.6379 3.908 68.3139 3.752 67.9539 3.752H67.5939L67.2339 3.392V2.312L73.0659 0.079999H74.1459L74.5059 0.439999L74.1459 3.752V22.4C74.1459 22.76 74.2899 23.096 74.5779 23.408C74.8899 23.696 75.2259 23.84 75.5859 23.84H76.0179L76.3059 24.128V25.712L76.0179 26H67.5219L67.2339 25.712V24.128L67.5219 23.84H67.9539C68.3139 23.84 68.6379 23.696 68.9259 23.408C69.2379 23.096 69.3939 22.76 69.3939 22.4V5.192ZM80.9449 32.624L85.5529 24.704L78.8929 11.096C78.8209 10.904 78.7249 10.736 78.6049 10.592C78.4849 10.448 78.2929 10.376 78.0289 10.376H76.6609L76.3729 10.088V8.504L76.6609 8.216H85.4449L85.7329 8.504V10.088L85.4449 10.376H84.7249C84.1729 10.376 83.8969 10.616 83.8969 11.096C83.8969 11.336 83.9689 11.6 84.1129 11.888L88.0369 20.312L92.0689 11.888C92.2129 11.6 92.2849 11.336 92.2849 11.096C92.2849 10.616 92.0089 10.376 91.4569 10.376H90.7369L90.4489 10.088V8.504L90.7369 8.216H96.3889L96.6769 8.504V10.088L96.3889 10.376H95.7769C95.4409 10.376 95.1769 10.46 94.9849 10.628C94.7929 10.796 94.6249 11.024 94.4809 11.312L83.5369 33.776L83.1769 34.136H82.0249L81.5209 33.848L80.9449 32.984V32.624Z" fill="white"/>
<path d="M98.8262 23.768C98.8262 23 99.0902 22.34 99.6182 21.788C100.146 21.236 100.794 20.96 101.562 20.96C102.33 20.96 102.99 21.236 103.542 21.788C104.094 22.34 104.37 23 104.37 23.768C104.37 24.536 104.094 25.184 103.542 25.712C102.99 26.24 102.33 26.504 101.562 26.504C100.794 26.504 100.146 26.24 99.6182 25.712C99.0902 25.184 98.8262 24.536 98.8262 23.768Z" fill="#FFCFCF"/>
</svg>
